<svg id="visual" viewBox="0 0 1920 845" width="1920" height="845" xmlns="http://www.w3.org/2000/svg" xmlns:xlink="http://www.w3.org/1999/xlink" version="1.1"><rect x="0" y="0" width="1920" height="845" fill="#FFFFFF"></rect><path d="M0 722L22.8 711.8C45.7 701.7 91.3 681.3 137 689C182.7 696.7 228.3 732.3 274 746.8C319.7 761.3 365.3 754.7 411.2 744.8C457 735 503 722 548.8 708.7C594.7 695.3 640.3 681.7 686 677C731.7 672.3 777.3 676.7 823 682.3C868.7 688 914.3 695 960 708.2C1005.7 721.3 1051.3 740.7 1097 733.3C1142.7 726 1188.3 692 1234 678C1279.7 664 1325.3 670 1371.2 682C1417 694 1463 712 1508.8 728.7C1554.7 745.3 1600.3 760.7 1646 768.7C1691.7 776.7 1737.3 777.3 1783 773.3C1828.7 769.3 1874.3 760.7 1897.2 756.3L1920 752L1920 846L1897.2 846C1874.3 846 1828.7 846 1783 846C1737.3 846 1691.7 846 1646 846C1600.3 846 1554.7 846 1508.8 846C1463 846 1417 846 1371.2 846C1325.3 846 1279.7 846 1234 846C1188.3 846 1142.7 846 1097 846C1051.3 846 1005.7 846 960 846C914.3 846 868.7 846 823 846C777.3 846 731.7 846 686 846C640.3 846 594.7 846 548.8 846C503 846 457 846 411.2 846C365.3 846 319.7 846 274 846C228.3 846 182.7 846 137 846C91.3 846 45.7 846 22.8 846L0 846Z" fill="#330080" stroke-linecap="round" stroke-linejoin="miter"></path></svg>